<svg id="Layer_1" data-name="Layer 1" xmlns="http://www.w3.org/2000/svg" xmlns:xlink="http://www.w3.org/1999/xlink" viewBox="0 0 100 100"><defs><style>.cls-1{fill:url(#linear-gradient);}.cls-2{fill:#fff;}.cls-3{fill:none;stroke:#fff;stroke-miterlimit:10;stroke-width:0.25px;}</style><linearGradient id="linear-gradient" x1="-14.44" y1="0.76" x2="137.39" y2="121" gradientUnits="userSpaceOnUse"><stop offset="0" stop-color="#000428"/><stop offset="1" stop-color="#004e92"/></linearGradient></defs><title>Artboard 1BKGlogo</title><rect class="cls-1" x="1" y="9" width="98.51" height="86" rx="21.82"/><path class="cls-2" d="M8.21,61.25V25.14H20.59q6.12,0,9.33,2.46t3.19,7.31a7.76,7.76,0,0,1-1.34,4.47,8.6,8.6,0,0,1-3.91,3.07,8,8,0,0,1,4.52,3A8.67,8.67,0,0,1,34,50.71c0,3.39-1.08,6-3.26,7.81s-5.29,2.73-9.34,2.73Zm6.28-20.91h6.15A7.12,7.12,0,0,0,25.21,39a4.56,4.56,0,0,0,1.65-3.76,4.59,4.59,0,0,0-1.52-3.87,7.73,7.73,0,0,0-4.75-1.19h-6.1Zm0,4.62V56.24h7a6.78,6.78,0,0,0,4.61-1.46,5.13,5.13,0,0,0,1.66-4.07q0-5.62-5.75-5.75Z"/><path class="cls-2" d="M46.81,45.65,42.72,50V61.25H36.45V25.14h6.27V42.08l3.47-4.29L56.76,25.14h7.59l-13.42,16L65.12,61.25H57.68Z"/><path class="cls-2" d="M91.57,56.56a11.94,11.94,0,0,1-5.43,3.87,22.13,22.13,0,0,1-7.89,1.32,15.59,15.59,0,0,1-8-2.06,13.69,13.69,0,0,1-5.39-5.89,20.57,20.57,0,0,1-2-8.94V42q0-8.19,3.92-12.79t10.93-4.6q6,0,9.58,3a12.92,12.92,0,0,1,4.26,8.6H85.39q-1-6.52-7.56-6.53a7.42,7.42,0,0,0-6.41,3c-1.47,2-2.22,5-2.27,8.91v2.77q0,5.85,2.47,9.08a8.12,8.12,0,0,0,6.85,3.24q4.82,0,6.85-2.18V47.49H77.88V42.72H91.57Z"/><path class="cls-2" d="M37.55,73a1.54,1.54,0,0,0-.25-.9,2.12,2.12,0,0,0-.79-.66,8.42,8.42,0,0,0-1.63-.59,8.07,8.07,0,0,1-1.64-.6,2.13,2.13,0,0,1-.79-.71,1.81,1.81,0,0,1-.26-1A1.78,1.78,0,0,1,33,67.11a3.33,3.33,0,0,1,2-.57,3.25,3.25,0,0,1,1.45.32,2.3,2.3,0,0,1,1,.88A2.35,2.35,0,0,1,37.77,69h-.31a2,2,0,0,0-.69-1.55A2.59,2.59,0,0,0,35,66.86a3,3,0,0,0-1.79.49,1.47,1.47,0,0,0-.69,1.24,1.44,1.44,0,0,0,.6,1.21,5.58,5.58,0,0,0,2,.82,6.13,6.13,0,0,1,2,.82A1.88,1.88,0,0,1,37.87,73a1.81,1.81,0,0,1-.36,1.12,2.29,2.29,0,0,1-1,.76,4,4,0,0,1-1.47.26,4.24,4.24,0,0,1-1.64-.3,2.23,2.23,0,0,1-1.46-2.18h.31a1.88,1.88,0,0,0,.77,1.6,3.33,3.33,0,0,0,2,.57,3.1,3.1,0,0,0,1.81-.5A1.55,1.55,0,0,0,37.55,73Z"/><path class="cls-2" d="M45.45,71.49a4.56,4.56,0,0,1-.39,1.93A2.93,2.93,0,0,1,44,74.71a3,3,0,0,1-1.66.46,2.88,2.88,0,0,1-2.3-1,4,4,0,0,1-.87-2.72V70.23a4.59,4.59,0,0,1,.39-1.93A3,3,0,0,1,40.62,67a3.23,3.23,0,0,1,3.32,0,3,3,0,0,1,1.12,1.31,4.51,4.51,0,0,1,.39,1.92Zm-.31-1.27a3.68,3.68,0,0,0-.77-2.44,2.59,2.59,0,0,0-2.09-.92,2.55,2.55,0,0,0-2.07.91,3.71,3.71,0,0,0-.77,2.49v1.23a4.27,4.27,0,0,0,.34,1.77,2.61,2.61,0,0,0,2.51,1.6,2.57,2.57,0,0,0,2.08-.92,3.77,3.77,0,0,0,.77-2.5Z"/><path class="cls-2" d="M52,70.93h-4.3v4.13h-.31v-8.4h5.2V67H47.68V70.6H52Z"/><path class="cls-2" d="M59.83,67h-3v8.09h-.32V67H53.41v-.31h6.42Z"/><path class="cls-2" d="M63.06,74.54l.38-1.39,2-6.49h.35l2,6.49.37,1.39.4-1.39,1.73-6.49h.34l-2.26,8.4H68l-2.08-7-.29-.89-.28.89-2.1,7h-.36l-2.26-8.4h.34l1.75,6.49Z"/><path class="cls-2" d="M76.26,72.55H72.15l-.93,2.51h-.34L74,66.66h.38l3.14,8.4H77.2Zm-4-.31h3.88L74.21,67Z"/><path class="cls-2" d="M82.09,71.46H79.17v3.6h-.31v-8.4h2.68a3,3,0,0,1,2,.65,2.37,2.37,0,0,1-1.15,4.07L84.65,75v.08h-.33Zm-2.92-.31h2.65a2.11,2.11,0,0,0,1.57-.59A2,2,0,0,0,84,69.08a1.91,1.91,0,0,0-.66-1.54,2.66,2.66,0,0,0-1.8-.57H79.17Z"/><path class="cls-2" d="M91.14,70.89H86.93v3.86h4.8v.31H86.62v-8.4h5.11V67h-4.8v3.61h4.21Z"/><path class="cls-2" d="M76.15,81.46H74.93l-.21,1.21h-.09l.42-2.46h1.48v.09H75.13l-.19,1.07h1.23Z"/><path class="cls-2" d="M77.67,82.67l.06-.29a.78.78,0,0,1-.29.25.91.91,0,0,1-.37.08.45.45,0,0,1-.34-.12.46.46,0,0,1-.15-.32,2.44,2.44,0,0,1,0-.27l.2-1.16h.09L76.68,82a1.62,1.62,0,0,0,0,.22.45.45,0,0,0,.11.29.41.41,0,0,0,.28.1.77.77,0,0,0,.45-.14.64.64,0,0,0,.26-.35L78,80.84h.09l-.31,1.83Z"/><path class="cls-2" d="M79,80.35l-.09.49h.4v.09h-.41l-.23,1.35v.09a.24.24,0,0,0,0,.18.22.22,0,0,0,.16.07l.19,0v.09l-.18,0a.27.27,0,0,1-.3-.3.55.55,0,0,1,0-.18l.22-1.3h-.33l0-.09h.33l.08-.49Z"/><path class="cls-2" d="M80.62,82.67l0-.29a.78.78,0,0,1-.29.25.91.91,0,0,1-.37.08.45.45,0,0,1-.34-.12.46.46,0,0,1-.15-.32,1.23,1.23,0,0,1,0-.27l.19-1.16h.1L79.62,82a1.62,1.62,0,0,0,0,.22.45.45,0,0,0,.11.29.41.41,0,0,0,.28.1.77.77,0,0,0,.45-.14.64.64,0,0,0,.26-.35l.22-1.29H81l-.31,1.83Z"/><path class="cls-2" d="M82.38,80.91h-.12a.64.64,0,0,0-.42.17.82.82,0,0,0-.26.4l-.21,1.2h-.09l.32-1.83h.09l-.07.38a.81.81,0,0,1,.28-.3.6.6,0,0,1,.37-.11.32.32,0,0,1,.13,0Z"/><path class="cls-2" d="M83.06,82.71a.57.57,0,0,1-.38-.13.73.73,0,0,1-.23-.33,1,1,0,0,1,0-.45v-.09a1.28,1.28,0,0,1,.17-.46,1.12,1.12,0,0,1,.32-.33.77.77,0,0,1,.39-.11.54.54,0,0,1,.44.2.81.81,0,0,1,.13.53v.16H82.53l0,.1a.66.66,0,0,0,0,.28.62.62,0,0,0,.18.39.5.5,0,0,0,.37.15.78.78,0,0,0,.57-.25l.06,0A.82.82,0,0,1,83.06,82.71Zm.25-1.81a.67.67,0,0,0-.47.19,1.21,1.21,0,0,0-.3.52h1.23v0a1,1,0,0,0,0-.24.52.52,0,0,0-.16-.32A.43.43,0,0,0,83.31,80.9Z"/><path class="cls-2" d="M85,81.72a1.07,1.07,0,0,1,.17-.46.92.92,0,0,1,.32-.33.79.79,0,0,1,.42-.12.58.58,0,0,1,.56.33.87.87,0,0,1,.09.36,1,1,0,0,1,0,.29,1.11,1.11,0,0,1-.17.47.92.92,0,0,1-.32.33.79.79,0,0,1-.42.12.63.63,0,0,1-.33-.09.59.59,0,0,1-.23-.24.75.75,0,0,1-.09-.37A1,1,0,0,1,85,81.72Zm.07.36a.66.66,0,0,0,.19.39.48.48,0,0,0,.37.15.73.73,0,0,0,.48-.19,1,1,0,0,0,.31-.5,1.09,1.09,0,0,0,0-.5.65.65,0,0,0-.18-.39.53.53,0,0,0-.37-.14.68.68,0,0,0-.48.19,1,1,0,0,0-.31.5A1.21,1.21,0,0,0,85,82.08Z"/><path class="cls-2" d="M86.93,82.67l.3-1.74h-.31v-.09h.32l0-.26a.66.66,0,0,1,.19-.39.49.49,0,0,1,.36-.15.78.78,0,0,1,.22,0l0,.08a.65.65,0,0,0-.19,0,.41.41,0,0,0-.3.13.64.64,0,0,0-.16.34l0,.24h.47l0,.09h-.47L87,82.67Z"/><path class="cls-2" d="M88.9,82.67h-.1l.43-2.46h.09Z"/><path class="cls-2" d="M91.59,80.3h-.87l-.41,2.37h-.09l.41-2.37h-.87v-.09H91.6Z"/><line class="cls-3" x1="55.41" y1="79.09" x2="91.61" y2="79.09"/></svg>